# xmcd CD database file
#
# Track frame offsets:
#	150
#	11131
#	23926
#	38909
#	53320
#	67088
#	78722
#	91462
#	107616
#	117922
#	128935
#	142997
#
# Disc length: 2069 seconds
#
# Revision: 0
# Processed by: cddbd v1.5.2PL0 Copyright (c) Steve Scherf et al.
# Submitted via: CDex 1.70beta2
#
DISCID=9f08130c
DTITLE=Burke, Johnny - Cdn. - ON - Window Up Above
DYEAR=1900
DGENRE=Country
TTITLE0=Catfish John
TTITLE1=They Don't Break'Em Like They Used To
TTITLE2=A Fire I Can't Put Out
TTITLE3=A Girl I Used To Know
TTITLE4=Hank Williams, You Wrote My Life
TTITLE5=You Ain't Nothin' But A Hound Dog
TTITLE6=Next In Line
TTITLE7=Nothin' Sure Looked Good On You
TTITLE8=Speak Softly, You're Talkin' To MyHeart
TTITLE9=When It's Springtime In Alaska
TTITLE10=Sweetheart, Darlin' of Mine
TTITLE11=Window Up Above
EXTD=
EXTT0=
EXTT1=
EXTT2=
EXTT3=
EXTT4=
EXTT5=
EXTT6=
EXTT7=
EXTT8=
EXTT9=
EXTT10=
EXTT11=
PLAYORDER=
